<svg width="11" height="11" viewBox="0 0 11 11" fill="none" xmlns="http://www.w3.org/2000/svg">
<rect width="9.94783" height="9.94783" transform="translate(0.709717 0.506775)" fill="white"/>
<path fill-rule="evenodd" clip-rule="evenodd" d="M10.2598 5.58877C10.2598 5.25077 10.2295 4.92577 10.1732 4.61377H5.68384V6.4576H8.24917C8.13867 7.05344 7.80284 7.55827 7.298 7.89627V9.09227H8.8385C9.73984 8.26244 10.2598 7.04044 10.2598 5.58877Z" fill="#4285F4"/>
<path fill-rule="evenodd" clip-rule="evenodd" d="M5.6835 10.2475C6.9705 10.2475 8.0495 9.8207 8.83816 9.0927L7.29766 7.8967C6.87083 8.1827 6.32483 8.3517 5.6835 8.3517C4.44199 8.3517 3.39116 7.5132 3.01633 6.38654H1.42383V7.62154C2.20816 9.17937 3.82016 10.2475 5.6835 10.2475Z" fill="#34A853"/>
<path fill-rule="evenodd" clip-rule="evenodd" d="M3.01649 6.38764C2.92116 6.10164 2.86699 5.79614 2.86699 5.48198C2.86699 5.16781 2.92116 4.86231 3.01649 4.57631V3.34131H1.42399C1.10116 3.98481 0.916992 4.71281 0.916992 5.48198C0.916992 6.25114 1.10116 6.97914 1.42399 7.62264L3.01649 6.38764Z" fill="#FBBC05"/>
<path fill-rule="evenodd" clip-rule="evenodd" d="M5.6835 2.61062C6.38333 2.61062 7.01166 2.85112 7.50566 3.32345L8.87283 1.95628C8.04733 1.18712 6.96833 0.714783 5.6835 0.714783C3.82016 0.714783 2.20816 1.78295 1.42383 3.34078L3.01633 4.57578C3.39116 3.44912 4.44199 2.61062 5.6835 2.61062Z" fill="#EA4335"/>
</svg>
